<?xml version="1.0" encoding="UTF-8"?>
<svg id="Camada_2" data-name="Camada 2" xmlns="http://www.w3.org/2000/svg" viewBox="0 0 683.58 98.58">
  <defs>
    <style>
      .cls-1 {
        fill: #2a64f3;
      }
    </style>
  </defs>
  <g id="Camada_1-2" data-name="Camada 1">
    <g id="Logo">
      <g>
        <path class="cls-1" d="m69.93,45.27h12.3L56.58,4.97c-14.06,6.8-24.4,20.15-27.08,36.04-.26,0-.46-.07-.72-.07-15.9,0-28.78,12.89-28.78,28.78s12.89,28.78,28.78,28.78h47.56c.59,0,1.11.07,1.7.07.85,0,1.7,0,2.55-.07h26.17l-36.83-53.25Z"/>
        <path class="cls-1" d="m129.46,28.78c-2.16,0-4.25.2-6.35.59C115.46,12.1,98.19,0,78.04,0c-3.92,0-7.72.46-11.45,1.31l36.04,56.13h-12.3l28.65,40.95h12.36v-.07c18.32-1.05,32.84-16.22,32.84-34.8.07-19.1-15.5-34.74-34.74-34.74Z"/>
      </g>
      <path d="m213.51,75.95c0-2.03-.72-3.53-2.16-4.64-1.44-1.05-3.99-2.22-7.65-3.4-3.73-1.18-6.61-2.35-8.77-3.53-5.89-3.21-8.83-7.46-8.83-12.82,0-2.81.78-5.3,2.35-7.46,1.57-2.22,3.86-3.92,6.8-5.17s6.28-1.83,9.94-1.83,7,.65,9.88,2.03c2.88,1.31,5.17,3.21,6.74,5.69,1.57,2.42,2.42,5.23,2.42,8.31h-10.66c0-2.35-.72-4.19-2.22-5.56-1.5-1.31-3.6-1.96-6.28-1.96s-4.64.52-6.08,1.64c-1.44,1.11-2.16,2.55-2.16,4.38,0,1.7.85,3.07,2.55,4.25,1.7,1.11,4.19,2.22,7.46,3.21,6.08,1.83,10.47,4.12,13.28,6.8,2.75,2.68,4.19,6.08,4.19,10.07,0,4.51-1.7,7.98-5.1,10.53s-7.98,3.79-13.67,3.79c-3.99,0-7.59-.72-10.86-2.16-3.27-1.44-5.76-3.47-7.46-6.02-1.7-2.55-2.55-5.49-2.55-8.83h10.73c0,5.69,3.4,8.57,10.27,8.57,2.55,0,4.51-.52,5.95-1.57,1.18-1.05,1.9-2.49,1.9-4.32Z"/>
      <path d="m246.61,90.21c-5.76,0-10.47-1.77-14.13-5.3-3.6-3.53-5.43-8.24-5.43-14.13v-1.05c0-3.92.78-7.52,2.29-10.6,1.5-3.14,3.66-5.49,6.48-7.2,2.81-1.7,6.02-2.55,9.62-2.55,5.36,0,9.62,1.7,12.69,5.1,3.07,3.4,4.64,8.24,4.64,14.46v4.32h-25.05c.33,2.55,1.37,4.64,3.07,6.21,1.7,1.57,3.86,2.35,6.48,2.35,4.06,0,7.2-1.44,9.49-4.38l5.17,5.76c-1.57,2.22-3.73,3.99-6.41,5.23-2.68,1.18-5.63,1.77-8.9,1.77Zm-1.24-32.31c-2.09,0-3.79.72-5.1,2.09-1.31,1.44-2.16,3.47-2.49,6.08h14.65v-.85c-.07-2.35-.65-4.12-1.9-5.43-1.18-1.24-2.88-1.9-5.17-1.9Z"/>
      <path d="m287.76,60.84c-1.44-.2-2.68-.26-3.79-.26-3.99,0-6.61,1.37-7.85,4.06v25.77h-10.53v-39.38h9.94l.26,4.71c2.09-3.6,5.04-5.43,8.77-5.43,1.18,0,2.22.13,3.27.46l-.07,10.07Z"/>
      <path d="m307.84,77.45l7.33-26.56h10.99l-13.28,39.38h-10.07l-13.28-39.31h10.99l7.33,26.49Z"/>
      <path d="m345.52,90.21c-5.76,0-10.47-1.77-14.13-5.3-3.6-3.53-5.43-8.24-5.43-14.13v-1.05c0-3.92.78-7.52,2.29-10.6,1.5-3.14,3.66-5.49,6.48-7.2,2.81-1.7,6.02-2.55,9.62-2.55,5.36,0,9.62,1.7,12.69,5.1,3.07,3.4,4.64,8.24,4.64,14.46v4.32h-25.05c.33,2.55,1.37,4.64,3.07,6.21,1.7,1.57,3.86,2.35,6.48,2.35,4.06,0,7.2-1.44,9.49-4.38l5.17,5.76c-1.57,2.22-3.73,3.99-6.41,5.23-2.68,1.18-5.63,1.77-8.9,1.77Zm-1.24-32.31c-2.09,0-3.79.72-5.1,2.09-1.31,1.44-2.16,3.47-2.49,6.08h14.65v-.85c-.07-2.35-.65-4.12-1.9-5.43-1.18-1.24-2.94-1.9-5.17-1.9Z"/>
      <path d="m387.45,60.84c-1.44-.2-2.68-.26-3.79-.26-3.99,0-6.61,1.37-7.85,4.06v25.77h-10.53v-39.38h9.94l.26,4.71c2.09-3.6,5.04-5.43,8.77-5.43,1.18,0,2.22.13,3.27.46l-.07,10.07Z"/>
      <path d="m402.63,90.34h-10.34v-53.31h10.34v53.31Z"/>
      <path d="m426.96,90.27c-5.76,0-10.53-1.77-14.13-5.3-3.66-3.53-5.43-8.31-5.43-14.19v-1.05c0-3.99.78-7.52,2.29-10.66,1.5-3.14,3.73-5.56,6.54-7.2,2.81-1.7,6.02-2.55,9.62-2.55,5.43,0,9.62,1.7,12.76,5.1,3.07,3.4,4.64,8.24,4.64,14.46v4.32h-25.12c.33,2.55,1.37,4.64,3.07,6.21,1.7,1.57,3.86,2.35,6.54,2.35,4.06,0,7.26-1.44,9.55-4.38l5.17,5.82c-1.57,2.22-3.73,3.99-6.41,5.23-2.81,1.18-5.82,1.83-9.09,1.83Zm-1.18-32.45c-2.09,0-3.79.72-5.1,2.09-1.31,1.44-2.16,3.47-2.49,6.08h14.65v-.85c-.07-2.35-.65-4.19-1.9-5.43-1.24-1.24-2.94-1.9-5.17-1.9Z"/>
      <path d="m469.09,78.63c0-1.31-.65-2.29-1.9-3.07-1.31-.72-3.34-1.37-6.15-1.96-9.35-1.96-14.06-5.95-14.06-11.97,0-3.53,1.44-6.41,4.38-8.77,2.88-2.35,6.74-3.53,11.38-3.53,5.04,0,9.03,1.18,12.04,3.53,3.01,2.35,4.51,5.43,4.51,9.22h-10.53c0-1.5-.46-2.75-1.44-3.73s-2.49-1.5-4.58-1.5c-1.77,0-3.14.39-4.12,1.18-.98.78-1.44,1.83-1.44,3.07,0,1.18.52,2.09,1.64,2.81,1.11.72,2.94,1.31,5.63,1.83s4.84,1.11,6.61,1.77c5.56,2.03,8.37,5.56,8.37,10.6,0,3.6-1.57,6.54-4.64,8.77-3.07,2.22-7.06,3.34-11.97,3.34-3.34,0-6.21-.59-8.83-1.77-2.55-1.18-4.58-2.81-6.02-4.84s-2.16-4.25-2.16-6.67h9.88c.07,1.9.78,3.34,2.09,4.32s3.01,1.5,5.17,1.5c2.03,0,3.53-.39,4.58-1.18,1.05-.72,1.57-1.7,1.57-2.94Z"/>
      <path d="m505.98,78.63c0-1.31-.65-2.29-1.9-3.07-1.31-.72-3.34-1.37-6.15-1.96-9.35-1.96-14.06-5.95-14.06-11.97,0-3.53,1.44-6.41,4.38-8.77,2.88-2.35,6.74-3.53,11.38-3.53,5.04,0,9.03,1.18,12.04,3.53,3.01,2.35,4.51,5.43,4.51,9.22h-10.53c0-1.5-.46-2.75-1.44-3.73s-2.49-1.5-4.58-1.5c-1.77,0-3.14.39-4.12,1.18-.98.78-1.44,1.83-1.44,3.07,0,1.18.52,2.09,1.64,2.81,1.11.72,2.94,1.31,5.63,1.83s4.84,1.11,6.61,1.77c5.56,2.03,8.37,5.56,8.37,10.6,0,3.6-1.57,6.54-4.64,8.77-3.07,2.22-7.06,3.34-11.97,3.34-3.34,0-6.21-.59-8.83-1.77-2.55-1.18-4.58-2.81-6.02-4.84s-2.16-4.25-2.16-6.67h10.01c.07,1.9.78,3.34,2.09,4.32s3.01,1.5,5.17,1.5c2.03,0,3.53-.39,4.58-1.18.92-.72,1.44-1.7,1.44-2.94Z"/>
      <path d="m577.02,83.01c-1.9,2.29-4.64,4.06-8.18,5.36-3.53,1.24-7.39,1.9-11.64,1.9-4.51,0-8.44-.98-11.77-2.94-3.4-1.96-6.02-4.78-7.85-8.5-1.83-3.73-2.81-8.11-2.81-13.15v-3.53c0-5.17.85-9.62,2.62-13.41s4.25-6.67,7.52-8.7c3.27-2.03,7.13-3.01,11.51-3.01,6.15,0,10.92,1.44,14.39,4.38s5.49,7.2,6.15,12.76h-10.4c-.46-2.94-1.5-5.1-3.14-6.54-1.64-1.37-3.86-2.09-6.67-2.09-3.6,0-6.41,1.37-8.31,4.12-1.9,2.75-2.88,6.8-2.88,12.17v3.34c0,5.43,1.05,9.55,3.07,12.3,2.09,2.75,5.1,4.19,9.09,4.19s6.87-.85,8.57-2.55v-8.9h-9.68v-7.85h20.41v20.67h0Z"/>
      <path d="m607.18,85.5c-2.62,3.14-6.21,4.78-10.79,4.78-4.25,0-7.46-1.24-9.68-3.66s-3.34-6.02-3.4-10.66v-25.9h10.53v25.51c0,4.12,1.9,6.15,5.63,6.15s6.02-1.24,7.39-3.73v-28h10.6v39.51h-9.94l-.33-3.99Z"/>
      <path d="m646.03,59.92c-1.44-.2-2.68-.26-3.79-.26-3.99,0-6.61,1.37-7.85,4.06v25.84h-10.53v-39.51h9.94l.26,4.71c2.09-3.6,5.04-5.43,8.77-5.43,1.18,0,2.29.13,3.27.46l-.07,10.14Z"/>
      <path d="m673.31,85.5c-2.62,3.14-6.21,4.78-10.79,4.78-4.25,0-7.46-1.24-9.68-3.66s-3.34-6.02-3.4-10.66v-25.9h10.53v25.51c0,4.12,1.9,6.15,5.63,6.15s6.02-1.24,7.39-3.73v-28h10.6v39.51h-9.94l-.33-3.99Z"/>
    </g>
  </g>
</svg>