<?xml version="1.0" encoding="UTF-8"?>
<svg id="Layer_2" data-name="Layer 2" xmlns="http://www.w3.org/2000/svg" viewBox="0 0 447.35 410.17">
  <defs>
    <style>
      .cls-1, .cls-2, .cls-3, .cls-4, .cls-5, .cls-6, .cls-7, .cls-8, .cls-9, .cls-10, .cls-11, .cls-12, .cls-13, .cls-14, .cls-15 {
        stroke-miterlimit: 10;
      }

      .cls-1, .cls-2, .cls-4, .cls-5, .cls-6, .cls-16, .cls-17, .cls-8, .cls-9, .cls-10, .cls-11, .cls-12, .cls-13, .cls-14, .cls-15 {
        stroke: #000;
      }

      .cls-1, .cls-2, .cls-6, .cls-17, .cls-7, .cls-8, .cls-9, .cls-10 {
        fill: none;
      }

      .cls-1, .cls-2, .cls-16, .cls-11, .cls-12, .cls-13, .cls-14, .cls-15 {
        stroke-width: 3px;
      }

      .cls-1, .cls-3, .cls-6, .cls-18, .cls-7, .cls-8, .cls-11, .cls-12, .cls-15 {
        stroke-linecap: round;
      }

      .cls-19, .cls-20 {
        fill: #fff;
      }

      .cls-21, .cls-13 {
        fill: #009c3b;
      }

      .cls-22 {
        fill: #dadfe5;
      }

      .cls-23, .cls-5, .cls-16, .cls-14 {
        fill: #a7a9ac;
      }

      .cls-3, .cls-4, .cls-5, .cls-7, .cls-8, .cls-9 {
        stroke-width: 2px;
      }

      .cls-3, .cls-18 {
        fill: #fff200;
      }

      .cls-3, .cls-18, .cls-7 {
        stroke: #f7941d;
      }

      .cls-20 {
        opacity: .3;
      }

      .cls-20, .cls-24 {
        isolation: isolate;
      }

      .cls-24 {
        fill: #3e5a7d;
        opacity: .31;
      }

      .cls-4, .cls-11 {
        fill: #36c;
      }

      .cls-16 {
        stroke-linejoin: round;
      }

      .cls-18 {
        stroke-miterlimit: 10;
        stroke-width: 2px;
      }

      .cls-17 {
        stroke-miterlimit: 10;
        stroke-width: 2px;
      }

      .cls-12 {
        fill: #ffdf00;
      }

      .cls-15 {
        fill: #443641;
      }
    </style>
  </defs>
  <g id="Layer_1-2" data-name="Layer 1">
    <g id="Layer_2-2" data-name="Layer 2">
      <path class="cls-21" d="m393.4,159.47c-10.2,18.4-28.1,38.9-48,51.1-14.6,9-43.5,16.3-59,16.3l-42.1-25.1,24.6-44.9,75.6-10.6,46,2,2.9,11.2Z"/>
      <path class="cls-21" d="m169.5,233.87c-7.6,0-41.2,2.4-73.2-17.9-35.3-22.4-40.2-39.4-50.4-52.8l1.3-21.1,89.5,25.6,45.6,1.9v49.1l-12.8,15.2Z"/>
      <path d="m240.4,403.17c3.9-1.4,7.5-3.6,10.6-6.3,3.1-2.7,5.9-5.8,8.2-9.2,2.3-3.4,4.2-7.1,5.7-11,.8-1.9,1.4-3.9,1.9-5.9s.9-4.1,1-6.1c.1,4.2-.9,8.3-2.2,12.3-1.4,4-3.3,7.7-5.6,11.3-1.1,1.8-2.5,3.4-3.9,5-1.4,1.5-2.9,3-4.6,4.3-1.6,1.3-3.4,2.5-5.3,3.5-1.8.9-3.8,1.6-5.8,2.1Z"/>
      <path class="cls-9" d="m284.9,227.17c15.5,0,44.4-7.2,59-16.3,19.9-12.2,37.8-32.8,48-51.1"/>
      <g id="Layer_3" data-name="Layer 3">
        <path class="cls-22" d="m187.6,251.77c1.4-3.6,1.8-7,1.3-10.8-.4-3.1-5-3.3-5,0,0,1.9,0,3.9-.1,5.8,1.4-.6,2.8-1.2,4.3-1.8-.5-1.3-1-2.7-1.5-4-1.2.5-2.4,1-3.7,1.5,10.6,5.8,22.1,9,34.2,9.3v-5c-5.9.5-11.9.3-17.7-.9-4.7-1-8.9-3.2-13.8-2.3-2,.4-2.5,3.7-.6,4.6,14.8,6.5,30.6,9.6,46.8,9.1,3-.1,3.2-3.9.7-4.9-9.1-3.7-18.4-6.6-28-8.7-3.1-.7-4.4,3.9-1.3,4.8,12.2,3.6,24.7,5.7,37.3,6.2v-5c-6.7.4-13.2-.3-19.7-2.1-.2,1.6-.4,3.3-.7,4.9,8.2.7,16.4,2,24.4,3.9.2-1.6.4-3.3.7-4.9-6.5.4-12.4-.9-18-4.1-.4,1.6-.8,3.1-1.3,4.7,9-.4,17.9-.5,26.9-.3-.2-1.6-.4-3.3-.7-4.9-8.1,2.7-16.3,3.9-24.9,3.5-2.8-.1-3.5,4.5-.7,4.9,10.8,1.6,21.5,1.4,32.2-.7,2.5-.5,2.3-4.2,0-4.8-3.8-1.1-7.7-2.2-11.4-3.4-.2,1.6-.4,3.3-.7,4.9,6.5.3,13,.5,19.5.8,2.8.1,3.4-4.3.7-4.9-3.2-.7-5.7,0-8.1,2.1,1-.1,2-.3,3-.4-.2-.2-.4-.5-.6-.7-1.4.8-2.8,1.6-4.2,2.4,1.1,1,2.1,2.1,3.2,3.1,1.4,1.4,4.5.5,4.3-1.8-.1-.9-.2-1.9-.3-2.8-1.3.7-2.5,1.4-3.8,2.2,1.5.8,2.6,1.7,3.7,3,1.3,1.6,3.6.5,4.2-1.1.4-1.3.9-2.6,1.3-4-1.2.5-2.4,1-3.7,1.5,1.3.4,2.1,1.3,2.5,2.6.9,2,4.1,1.4,4.6-.6.6-2.3,1.3-4.5,2.2-6.7h-4.3c1.2,1.3,1.5,2.8.9,4.4-.8,3.2,3.7,4.3,4.8,1.3,1.1-2.9-.2-6-2.9-7.5-5-2.8-9.9,2.4-15,.8-3.1-1-4.4,3.9-1.3,4.8,1.9.6,3.5.7,5.5.4.6-.1,10.2-3.4,9,.2,1.6.4,3.2.9,4.8,1.3.7-3.1.4-5.7-1.4-8.3-.9-1.4-3.5-1.9-4.3,0-1.1,2.6-2,5.1-2.7,7.9,1.5-.2,3-.4,4.6-.6-1-2-2.3-3.4-4.3-4.4-1.5-.7-3.1-.1-3.7,1.5-.4,1.3-.9,2.6-1.3,4,1.4-.4,2.8-.7,4.2-1.1-1.4-1.7-2.8-2.8-4.7-3.8-1.5-.8-4,.1-3.8,2.2.1.9.2,1.9.3,2.8,1.4-.6,2.8-1.2,4.3-1.8-1.1-1-2.1-2.1-3.2-3.1-1.8-1.7-4.9,0-4.2,2.4.5,1.7,1.3,2.8,2.9,3.7,1,.6,2.2.4,3-.4,1.1-.3,2.1-.6,3.2-.8.2-1.6.4-3.3.7-4.9-6.5-.3-13-.5-19.5-.8-2.9-.1-3.3,4.1-.7,4.9,3.8,1.2,7.6,2.3,11.4,3.4v-4.8c-9.8,1.9-19.7,2.2-29.5.7-.2,1.6-.4,3.3-.7,4.9,9,.4,17.7-.9,26.2-3.7,2.6-.9,2.2-4.8-.7-4.9-9-.2-17.9-.1-26.9.3-2.4.1-3.5,3.4-1.3,4.7,6.4,3.6,13.3,5.2,20.6,4.8,2.7-.2,3.5-4.2.7-4.9-8.5-2-17.1-3.4-25.8-4.1-2.9-.2-3.3,4.2-.7,4.9,6.9,1.9,13.9,2.7,21,2.3,3.2-.2,3.2-4.9,0-5-12.3-.5-24.3-2.6-36-6-.4,1.6-.9,3.2-1.3,4.8,9.6,2.1,18.9,4.9,28,8.7.2-1.6.4-3.3.7-4.9-15.3.6-30.3-2.2-44.2-8.4-.2,1.5-.4,3-.6,4.6,3.1-.6,6.4,1.1,9.4,1.9,2.4.6,4.8,1,7.3,1.3,4.5.6,9,.6,13.6.2,3.2-.3,3.3-4.9,0-5-11.2-.3-21.9-3.3-31.7-8.7-1.3-.7-3.4-.2-3.7,1.5-.5,3.5.2,6.3,2.7,8.8,1.5,1.6,4.2.4,4.3-1.8,0-1.9,0-3.9.1-5.8h-5c.4,3.4.1,6.3-1.1,9.5-1.2,3.1,3.6,4.4,4.8,1.4h0Z"/>
      </g>
      <path class="cls-23" d="m399.9,146.17c.6-2.2.2-4.7-1.6-6.8-7.7-9.2-19.7-7.9-29.9-4.4-.6.2-1.1.3-1.7.5-11.9.3-23.6-1.2-35.2-4.6-1.5-.4-2.9-.4-4.1,0-1.2-.3-2.4-.6-3.6-.9-6.5-2.3-13.1-4.6-19.6-7-1.1-.4-2.2-.5-3.2-.4-.2-.2-.5-.4-.7-.7-2.7-2.7-6-2.7-8.5-1.3l1.8-14-4.4-35.6h-116.3s-3.6,27.5,15.9,59.5l99.9,1c.3.4.5.7.9,1.1,3.5,3.6,5.7,6.3,5.7,11.5,0,6-.3,12-.5,18-.1,5.2.2,10.5,5.2,13.5,4.4,2.6,10.7,2.7,15.6,2.9,1.3.1,2.5-.2,3.5-.8,5.4.2,10.8,0,16.2-.5,2.6.1,5.1-.2,7.8-.9,1.3-.4,2.4-.9,3.2-1.7,1.4-.3,2.8-.8,4.2-1.4,3.5-.8,6.9-1.8,10.2-3,1.9-.3,3.8-.9,5.6-1.7h1.1c3.5-.2,6.6-1.1,9.7-2.8,3.7-2.1,6.9-4.3,10.3-6.1,3.3-1.1,6.5-2.3,9.7-3.8,4.3-1.9,4.6-6.2,2.8-9.6Z"/>
      <path class="cls-23" d="m188,110.67c-8.2-4.5-18,3.3-26.7.5-4.2-1.4-7.8-3.5-12.3-3.7-4.5-.1-8.9,1.5-11.9,4.9-.9,1-1.4,2-1.7,3.1-1.1.1-2.2.1-3.2,0-2.6-.2-5,1.4-6.3,3.6-.2.1-.5.2-.7.3-1-.2-2.1-.2-3.3,0-9.8,2.1-19.6,4.2-29.5,6.1-8.7,1.7-17.4,3-26,0-7.5-2.6-12.2,7.7-7.2,12.6-.1,1.1.2,2.6.5,3.7.2.8.4,1.6.7,2.3-7.3-.4-12.4,10.1-4.6,13.7,24.7,11.4,50.9,18.6,78,21.1,11.6,1.1,26.8,3.5,34.7-7.3,1.3-1.8,2.3-3.8,3-5.8.5-.5,1-.9,1.5-1.5,2.7-3.1,2.6-6.8.7-9.5.2-1.5.3-3,.5-4.5,2-2.4,1.9-5.2.7-7.4.1-.6.1-1.3.2-1.9,6.9-.4,14.1-1.5,17.6-8,3.2-6.4,2.3-18.4-4.7-22.3Z"/>
      <path class="cls-23" d="m212.8,277.07c-.6-3.7-1.2-7.5-1.7-11.2-.5-2.9-4.8-2-4.9.7-.1,2.7-.3,5.3-.4,8,1.1-.8,2.1-1.6,3.2-2.4-1.7-.5-1.1-3.1-1-4.2-1.6-.2-3.3-.4-4.9-.7-.1,2.2-.1,4.3-.2,6.5,1.6-.4,3.1-.8,4.7-1.3-1.2-1.8-1.4-3.5-.7-5.6-1.5.2-3,.4-4.6.6,1.2,2.2,2.2,4.4,2.9,6.8.7,2.1,3.4,2.4,4.6.6,1.5-2.3,2.2-4.8,2.2-7.5-1.6.4-3.1.8-4.7,1.3,1.2,1.8,2.2,3.6,2.9,5.7.9,2.8,4.6,2.1,4.9-.7.2-2,.4-4,.5-6-1.6.4-3.1.8-4.7,1.3,1.1,1.6,1.8,3.2,1.9,5.2h5c-.2-2.4,0-4.4.8-6.7-1.5.2-3,.4-4.6.6,1.1,1.8,1.4,3.6,1.2,5.7h5c0-.8-.3-2.8,0-3.4-.5.4-1,.8-1.5,1.1.2-.1.3-.1.5-.2-.6-.1-1.3-.2-1.9-.3.1.1.3.2.4.2-.4-.5-.8-1-1.1-1.5.5,1.3.1,3.6.1,5,0,3.2,4.9,3.2,5,0,.1-2.2.1-4.4.2-6.5-1.6.2-3.3.4-4.9.7.2,1.1,1,4.5.3,5.7.5-.4,1-.8,1.5-1.1-2.1.6-4.7-.8-6.5-1.9-2.7-1.8-5.2,2.6-2.5,4.3,2.6,1.7,7.9,4.1,10.9,2.1,2.9-1.8,1.5-7.7,1.1-10.4-.5-2.9-4.8-2.1-4.9.7-.1,2.2-.1,4.4-.2,6.5h5c0-2.5,1-7.9-2.8-8.3-4.1-.5-3.7,4.8-3.7,7.3,0,3.3,4.7,3.2,5,0,.3-3-.4-5.6-1.9-8.2-1.2-1.9-3.9-1.4-4.6.6-.9,2.6-1.3,5.3-1,8,.3,3.2,5.2,3.2,5,0-.2-2.8-1-5.4-2.6-7.7-1.4-2-4.5-1.3-4.7,1.3-.1,2-.3,4-.5,6,1.6-.2,3.3-.4,4.9-.7-.8-2.5-1.9-4.7-3.4-6.9-1.4-2-4.6-1.3-4.7,1.3-.1,1.9-.6,3.4-1.6,5,1.5.2,3,.4,4.6.6-.9-2.8-2-5.5-3.4-8-1.1-2-3.9-1.3-4.6.6-1.2,3.2-.7,6.6,1.2,9.5,1.4,2,4.6,1.3,4.7-1.3.1-2.2.1-4.3.2-6.5.1-2.7-4.5-3.5-4.9-.7-.7,4.3-.4,8.9,4.5,10.4,1.6.5,3.1-.8,3.2-2.4.1-2.7.3-5.3.4-8-1.6.2-3.3.4-4.9.7.6,3.7,1.2,7.5,1.7,11.2.6,3,5.5,1.6,5-1.5h0Z"/>
      <path class="cls-3" d="m244.6,30.57s-6-6.1-8-11.4-3.2-17.1.4-18.1c3.6-1,13.1,9.5,15.6,15s4.8,14.5,4.8,14.5h-12.8Z"/>
      <polyline class="cls-7" points="247 29.87 244.6 24.77 246.9 25.37 246.8 22.07 249.1 24.97 250.5 21.57 251.9 26.67 252.6 29.87"/>
      <path class="cls-14" d="m293.2,98.47s6.1-2.5,18.9-4.1c27.8-3.4,48.4,3.1,52.7,3.3,7.5.4,8.4-9,2-19.4-4.9-8.1-81.4-58.9-145.4-45.2-50.4,10.8-56.7,41.3-56.7,41.3"/>
      <path class="cls-12" d="m170.7,235.57c0,.1.1.2.2.2,2.9,2.8,41.8,11.9,63.2,11.9s42.5-2.4,47.3-6c4.3-3.2,4.3-19,6.7-26.7,2.3-7.7,15-35,13.3-52.7s-8.7-37.3-9.3-42.7c-.5-4.3,3.7-15.4,5.5-19.8.3-.8-.1-1.5-1-1.4-3.2.1-4.2.1-5.1.6-.3.2-1.6,1.5-1.8,1.8-1.3,2.1-7.3,11.1-10.5,12.6-3.6,1.7-32.1,2.5-34.4.8s-4.2-22-8.6-22.7-70.1-14-71.4-17.3c-.7-1.8-.5-3.3-.1-4.2.2-.6-.2-1.3-.9-1.4-2-.2-5.4-.3-7.3,1.1-2.8,2.1,2.3,20.9-3.8,27.6-2.6,2.8-10.1,5.9-13.8,8.4-1.1.7-2.9,5.4-1.7,5.9,8,3.1,30.6,12.4,29,37.3-2,30.3-17.3,31.8-23.5,31.1-.9-.1-1.5.9-1,1.7,3.7,5,12.6,17.3,15.6,25.3,4.2,11.2,12.5,27,13.4,28.6Z"/>
      <path class="cls-14" d="m382.7,131.17s1.6-4.9,4.8-10.8c2.7-5,9-10.2,11.9-11.8,2.3-1.3,3.9,3.9,2.1,7.9-1.6,3.7-5,6.9-1,9.3,2.6,1.6,8.9-4.1,14-6.4,8.1-3.7,16.8-2.2,19,0,2.3,2.2-2.9,5.2-8.5,8-4.6,2.3-9.3,2.6-7.5,5.5,1.8,3,7,0,10.8-.8s15.3-1.5,17.3,2.1c2,3.7-8.5,9.2-14.5,10.9-3.1.8-9.5,1.3-9.5,3.3s4.7,1.9,9.4,3c4.5,1,10.1,2.5,8.1,4.7s-16.9,7.2-31.3,5.7c-5.3-.6-20.1-2.6-20.1-2.6"/>
      <path class="cls-2" d="m145.1,186.47c15.6,0,22-9.9,26.6-25.3,7.3-24.3-7.9-50.3-32.1-55.5"/>
      <path class="cls-2" d="m56.4,159.87c14.5,5.8,22.3,7.8,37.3,11.8,22.8,6,38.6,7.2,59.7,6.5"/>
      <path class="cls-2" d="m63.1,125.67c13.3,1.4,23.2.4,47-4.5,10.9-2.3,23-5.4,28-8.5"/>
      <line class="cls-2" x1="182.5" y1="249.17" x2="181.6" y2="239.57"/>
      <line class="cls-2" x1="277" y1="252.67" x2="276.9" y2="243.67"/>
      <path class="cls-2" d="m291.9,117.17c10.9,5,25.9,10.2,48,15,18.8,4.1,31.5,2.1,42.8-1"/>
      <path class="cls-2" d="m300.4,176.17c9.2,2.8,26.5,5.1,48-1,20-5.7,31.2-10.3,39-16"/>
      <path class="cls-2" d="m152.7,97.47c22.5,13.3,41,25.7,99.3,29.7,17,1.2,28.4-1.9,41-5.5"/>
      <path class="cls-1" d="m382.7,131.17c3.4,1.2,5.9,3.3,6.8,11.9.9,8.3-.9,12.7-2.1,16.1"/>
      <path class="cls-1" d="m240.4,95.97c9-2.1,27-3.5,39.9-4.5,15.3-1.3,44.5.4,55,1.9"/>
      <path class="cls-11" d="m280.2,273.57c7.2,4.9-16,67.4-24.3,75.6-5.6,5.5-17.6,2.8-18.3-3.6-.5-4.8,2.7-19.1,4.9-33,2.9-18.4.7-32.5,2.9-36.4,2.2-3.9,30-6,34.8-2.6Z"/>
      <path class="cls-14" d="m252.6,266.17v1.9c0,.6,0,4.9.3,6.8.1.6.5,1.2,1.1,1.4,2.1.7,6.5.7,8.8.7,2.7,0,5.6-.7,5.6-.7,1.7-.7,2.7-1.4,2.7-2.9v-6c0-2.6-2.1-4.6-4.6-4.6h-11c-1.7.2-3,1.7-2.9,3.4Z"/>
      <path class="cls-15" d="m297.7,344.37c.3,38.8-17.4,64.3-56,64.3-45.4,0-59.3-38.3-57.6-71.1,1.8-34.4,14.1-57.5,57.6-57.5,47.9,0,55.8,37.7,56,64.3Z"/>
      <path class="cls-14" d="m200.2,344.27c.3-24.6,10-39.6,25.1-39.6s27.4,9.4,27.4,39.5-13.1,40.9-28.4,38.5c-14.2-2.2-24.4-18-24.1-38.4Z"/>
      <path class="cls-11" d="m194.1,276.37c-7.4,5.1,16.5,69.5,25.1,78,5.8,5.7,18.2,2.9,18.9-3.7.6-4.9-2.8-19.7-5-34.1-3-19-.7-33.5-3-37.5s-31-6.2-36-2.7Z"/>
      <path class="cls-8" d="m240.9,101.67c8.7,2,17.5,2,26.8,2,10.5,0,16.5-1.1,20.5-2.5"/>
      <path class="cls-8" d="m243.2,107.87c7.5,2,15.2,2,23.2,2,8.7,0,14.7-1.2,17.8-2.5"/>
      <path class="cls-9" d="m256.6,30.77c-13.4-.3-31.6,11.4-31.6,23.3,0,8.1,18.1,37.2,35.7,39.7"/>
      <circle class="cls-9" cx="231.5" cy="54.57" r="1.5"/>
      <path class="cls-9" d="m203.9,38.17c-5.5,2.3-11.8,16.5-11.8,21.9,0,9.8,25.7,27.6,27,28"/>
      <circle class="cls-9" cx="198.4" cy="60.27" r="1.5"/>
      <path class="cls-13" d="m182,260.67c-3.1-3.5-4.6-9.2-1.9-11.3,2.3-1.8,21,5.1,53.8,5.7,33.8.6,45.7-4.9,47.5-2.3,2.4,3.4.7,8.9-2.6,11.6-2.9,2.4-20.3,3.5-44.4,3.6-22,.1-49.7-4.2-52.4-7.3Z"/>
      <path class="cls-8" d="m313.9,125.87c6.2,1.6,9.9,13.7,9.9,22.3-.1,19.6-5.2,26.9-9.9,30.9"/>
      <path class="cls-8" d="m337.2,132.17c6.2,1.4,9.9,11.9,9.9,19.4-.1,17.1-5.2,23.3-9.9,26.8"/>
      <path class="cls-8" d="m356.9,134.37c6.2,1.1,9.9,9.9,9.9,16.1-.1,14.2-5.2,19.4-9.9,22.3"/>
      <path class="cls-8" d="m376.1,132.97c4.1,1,6.6,8.4,6.6,13.6,0,12-3.5,16.4-6.6,18.9"/>
      <path class="cls-8" d="m149.4,192.87c2.6,1.6,21.2,6.4,29.3,11,11,6.3,18.4,13.9,20,15.6,3.9,4.2,3.6,7.5,8,17.3,2.9,6.5,4,6.9,7.2,8.6"/>
      <path class="cls-8" d="m198.7,219.47c13.7,6.6,31.1,8.4,58.1,7.6,14.4-.5,26.3-4.5,30.2-12"/>
      <path class="cls-6" d="m166.9,197.67l4.8-8c.5-.7,1.4-.9,2.1-.5l21.9,10.7c.7.4.9,1.4.5,2.1l-5.2,9"/>
      <path class="cls-8" d="m178.7,53.07c-.9,2.4-8.8,9.6-3.8,16.6,3.6,5.1,11.1,10.4,13.5,11.8"/>
      <circle class="cls-17" cx="179.33" cy="66.38" r="1.5"/>
      <path class="cls-9" d="m123.4,117.17c2.6,2.3,16.5,4.3,16.5,31.5,0,16.5-6.8,25.1-9.5,29"/>
      <path class="cls-9" d="m100.6,123.37c2.1,1.9,13.6,3.6,13.6,26.2,0,13.7-5.6,20.8-7.8,24.1"/>
      <path class="cls-9" d="m84.8,125.47c1.1,1.8,7.9,3.9,6,23.3-1.2,11.7-5.1,17.6-6.7,20.2"/>
      <path class="cls-9" d="m68.2,125.37c1.1,1.7,8.4,4.1,5.6,21.4-1.7,10.5-6.2,15.4-8,17.6"/>
      <path class="cls-14" d="m59.8,158.17s-9.4,3.5-26.8,6.2c-10.3,1.6-20.3.7-21.4-2.4-1.1-3.2,4.5-7.6,7.4-8.1,4.8-.8,12-3.5,11.7-5.4s-9.9,0-14.8-1.2c-2.5-.6-14.4-4-14.4-9.1,0-2,7.5-5.5,10.8-5.3,3.3.2,17.7,3.4,18.2,1.6.5-1.8-10-6.6-12.5-8.5-6.8-5.1-9.3-11.8-7-13.1s9.3-.7,14.2,2.8c3.2,2.3,9.4,8.4,13.8,7.8,7-.9.1-4.2-1.4-8.3-2.3-6.3-3.2-11.5-1.2-11.7s14.8,8.1,17.8,11c4.4,4.4,10.9,13.3,10.9,13.3"/>
      <line class="cls-10" x1="188.4" y1="81.57" x2="188.4" y2="115.67"/>
      <line class="cls-10" x1="190.3" y1="81.37" x2="190.3" y2="115.57"/>
      <ellipse class="cls-3" cx="46.4" cy="142.77" rx="5" ry="10.5"/>
      <path class="cls-8" d="m35.5,164.17c-4.8-10.8-4-17.4-4.1-22.8-.2-11.1.9-16,3.9-18.8"/>
      <path class="cls-9" d="m41.4,121.47c5,2.3,3.1,2,10.8,3.5,6.3,1.2,9.8-1.7,9.8-1.7"/>
      <path class="cls-9" d="m44.7,162.17c10.2,13.5,15.1,30.5,50.4,52.8,32,20.3,65.6,17.9,73.2,17.9"/>
      <path class="cls-5" d="m217,140.47l43.3,5.1c.9.3,1.9.2,2.8-.2l23.8-5.3c2.5-1.2,5.3.4,5.7,3.1l2.5,19c.2,1.3-.3,2.5-1.2,3.4l-16,15.8c-.6.6-1,1.3-1.1,2.1l-4.8,23.6c-.4,1.8-1.9,3.1-3.8,3.2l-22.1.8c-1.7.1-3.2-.9-3.9-2.5l-3.4-27.7c-.3-.7-.7-1.2-1.3-1.7l-25.8-11.8c-1.1-.8-1.7-2.2-1.5-3.6l1.8-19.8c.2-2.4,2.6-4.1,5-3.5Z"/>
      <circle class="cls-14" cx="259.8" cy="166.07" r="26.8" transform="translate(54.26 395.91) rotate(-80.78)"/>
      <circle class="cls-4" cx="260.4" cy="165.57" r="19.9"/>
      <line class="cls-1" x1="201.7" y1="274.67" x2="200.6" y2="265.47"/>
      <line class="cls-1" x1="222.8" y1="267.67" x2="222.8" y2="276.17"/>
      <g>
        <path class="cls-3" d="m176.8,9.67c-4,3.5,4,15.9,9,21.6,5,5.7,22.6,15.6,24.7,15.8,2,.2,3.1.1,6.5-3.4s-6.7-14.9-16-24.1c-5.9-5.8-20.9-12.9-24.2-9.9Z"/>
        <polyline class="cls-7" points="203.2 39.87 196.1 34.87 199.7 34.07 197.1 29.67 202.3 31.97 201.6 26.37 207.2 31.97 210.6 35.67"/>
        <path class="cls-16" d="m211.9,30.07c-2.3,6-6.9,10.6-12.6,13.3,5.2,3.5,10.1,6.2,11.1,6.3,2.1.1,3.2-.1,6.8-4.3,2.2-2.7-.7-8.7-5.3-15.3Z"/>
      </g>
      <path d="m236.4,284.67c2,.3,3.9.8,5.8,1.4s3.7,1.4,5.5,2.4c1.8.9,3.4,2,5,3.3,1.6,1.2,3.1,2.6,4.4,4,1.4,1.5,2.6,3.1,3.7,4.7,1.1,1.7,2.1,3.4,2.8,5.3,1.6,3.7,2.6,7.6,2.8,11.5-.3-1.9-.8-3.9-1.4-5.7-.6-1.9-1.3-3.7-2.1-5.5-1.7-3.5-3.8-6.8-6.5-9.6-2.6-2.9-5.7-5.3-9.1-7.3-3.4-2-7.1-3.5-10.9-4.5Z"/>
      <path class="cls-1" d="m64,125.87c1.5,5.4,2.5,9,1.1,17.5-1.5,9.3-3.5,11.9-6.8,17.1"/>
      <path class="cls-14" d="m223.8,350.47c-4,1.1-18.5-4.6-18.9-6.3-.4-1.8,14.3-4.4,18.9-2.7s4.3,7.9,0,9Z"/>
      <line class="cls-6" x1="287.8" y1="302.97" x2="268.9" y2="302.97"/>
      <line class="cls-6" x1="291" y1="311.97" x2="271.1" y2="311.97"/>
      <line class="cls-6" x1="280.5" y1="294.97" x2="261.6" y2="294.97"/>
      <line class="cls-6" x1="273" y1="288.97" x2="254.1" y2="288.97"/>
      <line class="cls-6" x1="267" y1="283.97" x2="248.1" y2="283.97"/>
      <ellipse class="cls-18" cx="403.49" cy="143.14" rx="4.7" ry="10.1" transform="translate(-14.82 51.98) rotate(-7.24)"/>
      <path class="cls-9" d="m384.5,126.47c1.7,1.3,4.8,1,7,.9,4.2-.1,6-1.8,7-4.3"/>
      <path class="cls-8" d="m407.5,124.37c2.6,1.4,5.9.7,10.2,12.3,5.8,15.5,1,24,0,25.6"/>
      <path class="cls-2" d="m259.6,59.97c-1.2-5.1,1.5-10.2,6.8-12.9,8.1-4,17.2,3.4,16.1,8.8"/>
    </g>
    <g id="Layer_6" data-name="Layer 6">
      <path class="cls-20" d="m293.6,128.27l2,7.4s7.1,4.9,28,11.1c28.8,8.4,66.1-4.1,66.1-4.1l-2.1-5.6s-33.7,7.5-50.5,4.5-43.5-13.3-43.5-13.3Z"/>
      <path class="cls-20" d="m341.4,64.27s-25.7-11.7-46.2-18.5c-32.4-10.7-53-3.6-50.6-7.5,4-6.4,41-2.7,78.5,16.7,17.7,9.1,18.3,9.3,18.3,9.3Z"/>
      <path class="cls-20" d="m70.1,131.17v6.5s23.6,2.1,39.6,1.4c16-.7,24.9-4,24.9-4,0,0,0-2.8-2.4-7.3-1.4-2.5-4.9-4.3-4.9-4.3,0,0-7.9,4-24.5,6-21.5,2.7-32.7,1.7-32.7,1.7Z"/>
      <path class="cls-20" d="m280.5,143.77l7.3-2.1c1.2-.3,2.3.5,2.6,1.7l1.3,13-2.8-12.1c-.2-.4-.6-.7-1-.9l-7.4.4Z"/>
      <path class="cls-20" d="m235.2,310.67c-1.8-1.7,7,2.6,11.2,14,6.1,16.3.8,37.8.8,37.8,0,0,2.9-15.6-2.3-34.5-2.6-9.8-9.7-17.3-9.7-17.3Z"/>
      <ellipse class="cls-19" cx="190.38" cy="18.7" rx="2.9" ry="6" transform="translate(66.52 164.48) rotate(-55.26)"/>
    </g>
    <g id="Layer_5" data-name="Layer 5">
      <path class="cls-24" d="m260.6,147.47c-8.3,0-15.3,5.7-17.3,13.5,3-2.3,6.8-3.7,10.9-3.7,9.9,0,17.9,8,17.9,17.9,0,1.5-.2,3-.6,4.5,4.3-3.3,7-8.4,7-14.2,0-10-8-18-17.9-18Zm9.7,6.9c-.8,1.2-3.2,1-5.3-.5-2.2-1.4-3.3-3.5-2.6-4.7.8-1.2,3.2-1,5.3.5,2.2,1.4,3.4,3.5,2.6,4.7Z"/>
    </g>
  </g>
</svg>